<svg xmlns="http://www.w3.org/2000/svg" width="27.459" height="23.963" viewBox="0 0 27.459 23.963"><defs><style>.a{fill:#fff;}</style></defs><path class="a" d="M20.721,7.326a1.74,1.74,0,0,0-1.723,0l-3.952,2.33-2.685,1.52L8.41,13.506a1.74,1.74,0,0,1-1.723,0L3.546,11.683a1.747,1.747,0,0,1-.861-1.469v-3.6a1.643,1.643,0,0,1,.861-1.469l3.09-1.773a1.74,1.74,0,0,1,1.723,0l3.09,1.773a1.747,1.747,0,0,1,.861,1.469v2.33L15,7.376V5.046a1.643,1.643,0,0,0-.861-1.469L8.41.233a1.74,1.74,0,0,0-1.723,0L.861,3.577A1.643,1.643,0,0,0,0,5.046v6.738a1.643,1.643,0,0,0,.861,1.469L6.687,16.6a1.74,1.74,0,0,0,1.723,0l3.952-2.28,2.685-1.571L19,10.467a1.74,1.74,0,0,1,1.723,0l3.09,1.773a1.747,1.747,0,0,1,.861,1.469v3.6a1.643,1.643,0,0,1-.861,1.469L20.721,20.6A1.74,1.74,0,0,1,19,20.6l-3.09-1.773a1.747,1.747,0,0,1-.861-1.469v-2.33L12.362,16.6v2.33a1.643,1.643,0,0,0,.861,1.469l5.826,3.344a1.74,1.74,0,0,0,1.723,0L26.6,20.4a1.747,1.747,0,0,0,.861-1.469V12.189A1.643,1.643,0,0,0,26.6,10.72Z" transform="translate(0 -0.005)"/></svg>