<svg xmlns="http://www.w3.org/2000/svg" width="600" height="600" viewBox="0 0 20.762 16.387"><defs><style>.a{fill:#2bbdf7;}.a,.b,.c{fill-rule:evenodd;}.b{fill:#2891f9;}.c{fill:#2b6def;}</style></defs><g transform="translate(-486.252 368.452)"><path class="a" d="M64.276,48.3,66.6,53.451l3.458-1.993h0V47.467Z" transform="translate(430.033 -409.934)"/><path class="b" d="M114.239,17.075l-2.158-.813-2.306-.186v12.4l3.46,1.994,2.731-5.589-1.723-5.4Z" transform="translate(390.319 -382.533)"/><path class="a" d="M137.792,16.084l-.8,1.994h0v12.4l3.461-1.994v-12.4Z" transform="translate(366.564 -382.541)"/><path class="c" d="M113.231.389l-3.461,2,3.461,1.995,3.461-1.995Z" transform="translate(390.323 -368.84)"/><path class="b" d="M11.282,22.056h0l-3.46-3.872L.9,16.072v12.4l3.46,1.995.989-6.86,2.472.449v0l3.461,1.994V22.056Z" transform="translate(485.352 -382.53)"/><path class="c" d="M4.354.385.892,2.38l10.38,5.986,1.569-.9L14.733,6.37Z" transform="translate(485.359 -368.837)"/><path class="a" d="M28.12,63.146h0v8.407l3.461-1.994V65.141Z" transform="translate(461.593 -423.62)"/></g></svg>
